<?xml version="1.0" encoding="UTF-8" standalone="no"?>
<!-- Created with Inkscape (http://www.inkscape.org/) -->

<svg
   width="210mm"
   height="297mm"
   viewBox="0 0 210 297"
   version="1.1"
   id="svg1"
   inkscape:version="1.3 (1:1.3+202307231459+0e150ed6c4)"
   sodipodi:docname="hautparleur.svg"
   xmlns:inkscape="http://www.inkscape.org/namespaces/inkscape"
   xmlns:sodipodi="http://sodipodi.sourceforge.net/DTD/sodipodi-0.dtd"
   xmlns="http://www.w3.org/2000/svg"
   xmlns:svg="http://www.w3.org/2000/svg">
  <sodipodi:namedview
     id="namedview1"
     pagecolor="#ffffff"
     bordercolor="#000000"
     borderopacity="0.25"
     inkscape:showpageshadow="2"
     inkscape:pageopacity="0.0"
     inkscape:pagecheckerboard="0"
     inkscape:deskcolor="#d1d1d1"
     inkscape:document-units="mm"
     inkscape:zoom="1.0682139"
     inkscape:cx="314.54374"
     inkscape:cy="263.99206"
     inkscape:window-width="1674"
     inkscape:window-height="752"
     inkscape:window-x="70"
     inkscape:window-y="114"
     inkscape:window-maximized="0"
     inkscape:current-layer="layer1" />
  <defs
     id="defs1" />
  <g
     inkscape:label="Calque 1"
     inkscape:groupmode="layer"
     id="layer1">
    <path
       style="fill:none;stroke:#000000;stroke-width:2.55587;stroke-linecap:round;stroke-opacity:1"
       d="m 97.439403,42.00186 c 13.900027,4.434382 24.397547,4.894734 37.456327,11.708855 5.97706,3.11885 10.61268,7.376758 17.61247,7.960077"
       id="path25"
       sodipodi:nodetypes="csc" />
    <path
       style="fill:none;stroke:#000000;stroke-width:2.55587;stroke-linecap:round;stroke-opacity:1"
       d="m 100.37284,86.694887 c 11.38518,-5.845873 24.15871,-8.009321 36.05646,-12.305736 3.97754,-1.436336 8.59354,-5.445741 12.8345,-5.445741"
       id="path26" />
    <path
       style="fill:none;stroke:#000000;stroke-width:2.55587;stroke-linecap:round;stroke-opacity:1"
       d="M 97.160452,90.240764 C 91.99442,97.932403 74.006643,103.1588 74.006643,90.586747"
       id="path31" />
    <path
       style="fill:none;stroke:#000000;stroke-width:2.55587;stroke-linecap:round;stroke-opacity:1"
       d="M 96.754959,90.927075 C 107.89864,69.696199 107.53304,61.241225 96.606391,39.387891 94.07033,34.315759 93.116214,29.748945 87.241808,28.278579 c -15.33199,8.398943 -20.358832,26.647307 -16.55506,43.130279 1.925136,8.342234 5.445741,15.740772 5.445741,24.396925"
       id="path32" />
    <path
       style="fill:none;stroke:#000000;stroke-width:2.55587;stroke-linecap:round;stroke-opacity:1"
       d="M 89.767255,56.73754 C 74.608417,55.726459 59.794216,49.523411 45.766108,44.123848"
       id="path33" />
    <path
       style="fill:none;stroke:#000000;stroke-width:2.55587;stroke-linecap:round;stroke-opacity:1"
       d="m 86.239203,71.766744 c -15.12236,0.534987 -29.574185,6.042784 -42.175,14.061403"
       id="path34" />
    <path
       style="fill:none;stroke:#000000;stroke-width:2.55587;stroke-linecap:round;stroke-opacity:1"
       d="M 86.379761,80.652574 C 75.333899,89.217515 61.83038,96.394854 53.9272,108.46565 c -2.199392,3.35921 -3.327474,7.32179 -5.542759,10.64472"
       id="path35" />
    <path
       style="fill:none;stroke:#000000;stroke-width:2.55587;stroke-linecap:round;stroke-opacity:1"
       id="path36"
       sodipodi:type="arc"
       sodipodi:cx="97.584846"
       sodipodi:cy="66.303268"
       sodipodi:rx="1.7066882"
       sodipodi:ry="4.427578"
       sodipodi:start="0"
       sodipodi:end="6.2750864"
       sodipodi:open="true"
       sodipodi:arc-type="arc"
       d="m 99.291535,66.303268 a 1.7066882,4.427578 0 0 1 -1.703233,4.427569 1.7066882,4.427578 0 0 1 -1.71013,-4.409639 1.7066882,4.427578 0 0 1 1.696308,-4.445426 1.7066882,4.427578 0 0 1 1.716999,4.391638" />
    <path
       style="fill:none;stroke:#000000;stroke-width:2.55587;stroke-linecap:round;stroke-opacity:1"
       d="m 153.87441,61.763002 c 6.49866,4.15712 -0.0611,7.723072 -4.89876,7.723072"
       id="path37"
       sodipodi:nodetypes="cc" />
    <path
       style="fill:none;stroke:#000000;stroke-width:2.55587;stroke-linecap:round;stroke-opacity:1"
       d="m 132.17372,77.759675 c 0.56812,3.549841 0.43369,4.1099 1.73528,7.304728 1.70388,4.182253 4.60693,19.955707 10.342,11.762803 4.90033,-7.000417 4.53405,-10.869001 -0.41806,-16.467036 -3.01207,-3.404947 -1.90429,-4.880748 -6.11804,-6.462826"
       id="path38"
       sodipodi:nodetypes="csssc" />
  </g>
</svg>
